<svg xmlns="http://www.w3.org/2000/svg" xmlns:xlink="http://www.w3.org/1999/xlink" width="40" zoomAndPan="magnify" viewBox="0 0 30 30.000001" height="40" preserveAspectRatio="xMidYMid meet" version="1.0"><defs><clipPath id="036b18882f"><path d="M 9 2.902344 L 22.316406 2.902344 L 22.316406 16 L 9 16 Z M 9 2.902344 " clip-rule="nonzero"/></clipPath><clipPath id="76e9e9e37a"><path d="M 7.800781 13 L 21 13 L 21 26.128906 L 7.800781 26.128906 Z M 7.800781 13 " clip-rule="nonzero"/></clipPath></defs><g clip-path="url(#036b18882f)"><path fill="#ffde59" d="M 10.175781 14.945312 C 10.648438 15.414062 11.40625 15.414062 11.875 14.945312 L 19.816406 7.003906 L 19.816406 11.761719 C 19.816406 12.425781 20.355469 12.960938 21.019531 12.960938 C 21.679688 12.960938 22.21875 12.425781 22.21875 11.761719 L 22.21875 4.105469 C 22.21875 3.441406 21.679688 2.902344 21.019531 2.902344 L 13.359375 2.902344 C 12.699219 2.902344 12.160156 3.441406 12.160156 4.105469 C 12.160156 4.769531 12.699219 5.304688 13.359375 5.304688 L 18.117188 5.304688 L 10.175781 13.246094 C 9.707031 13.714844 9.707031 14.476562 10.175781 14.945312 Z M 10.175781 14.945312 " fill-opacity="1" fill-rule="nonzero"/></g><g clip-path="url(#76e9e9e37a)"><path fill="#ffde59" d="M 7.851562 17.269531 L 7.851562 24.925781 C 7.851562 25.589844 8.390625 26.128906 9.054688 26.128906 L 16.710938 26.128906 C 17.375 26.128906 17.910156 25.589844 17.910156 24.925781 C 17.910156 24.265625 17.375 23.726562 16.710938 23.726562 L 11.953125 23.726562 L 19.894531 15.785156 C 20.363281 15.316406 20.363281 14.554688 19.894531 14.085938 C 19.425781 13.617188 18.664062 13.617188 18.195312 14.085938 L 10.257812 22.027344 L 10.257812 17.269531 C 10.257812 16.605469 9.71875 16.070312 9.054688 16.070312 C 8.390625 16.070312 7.851562 16.609375 7.851562 17.269531 Z M 7.851562 17.269531 " fill-opacity="1" fill-rule="nonzero"/></g></svg>