<svg xmlns="http://www.w3.org/2000/svg" xmlns:xlink="http://www.w3.org/1999/xlink" width="132" zoomAndPan="magnify" viewBox="0 0 98.88 30.000001" height="40" preserveAspectRatio="xMidYMid meet" version="1.0"><defs><g/></defs><g fill="#fafafa" fill-opacity="0.4"><g transform="translate(5.395665, 21.202466)"><g><path d="M 10.90625 -3.71875 C 10.75 -2.851562 10.414062 -2.132812 9.90625 -1.5625 C 9.40625 -0.988281 8.804688 -0.5625 8.109375 -0.28125 C 7.410156 0 6.691406 0.140625 5.953125 0.140625 C 5.328125 0.140625 4.710938 0.0351562 4.109375 -0.171875 C 3.503906 -0.378906 2.960938 -0.691406 2.484375 -1.109375 C 2.003906 -1.535156 1.625 -2.0625 1.34375 -2.6875 C 1.0625 -3.3125 0.921875 -4.046875 0.921875 -4.890625 C 0.921875 -5.734375 1.0625 -6.46875 1.34375 -7.09375 C 1.625 -7.726562 2.007812 -8.25 2.5 -8.65625 C 2.988281 -9.070312 3.53125 -9.382812 4.125 -9.59375 C 4.726562 -9.8125 5.347656 -9.921875 5.984375 -9.921875 C 6.734375 -9.921875 7.445312 -9.773438 8.125 -9.484375 C 8.8125 -9.203125 9.40625 -8.773438 9.90625 -8.203125 C 10.414062 -7.628906 10.75 -6.910156 10.90625 -6.046875 L 9.09375 -6.046875 C 8.875 -6.828125 8.472656 -7.40625 7.890625 -7.78125 C 7.304688 -8.15625 6.675781 -8.34375 6 -8.34375 C 5.457031 -8.34375 4.929688 -8.21875 4.421875 -7.96875 C 3.910156 -7.71875 3.492188 -7.335938 3.171875 -6.828125 C 2.847656 -6.316406 2.6875 -5.671875 2.6875 -4.890625 C 2.6875 -4.109375 2.847656 -3.457031 3.171875 -2.9375 C 3.492188 -2.414062 3.910156 -2.03125 4.421875 -1.78125 C 4.929688 -1.53125 5.460938 -1.40625 6.015625 -1.40625 C 6.691406 -1.40625 7.316406 -1.597656 7.890625 -1.984375 C 8.472656 -2.367188 8.875 -2.945312 9.09375 -3.71875 Z M 10.90625 -3.71875 "/></g></g></g><g fill="#fafafa" fill-opacity="0.4"><g transform="translate(16.9106, 21.202466)"><g><path d="M 11.453125 -4.875 C 11.453125 -4.03125 11.300781 -3.289062 11 -2.65625 C 10.707031 -2.03125 10.304688 -1.503906 9.796875 -1.078125 C 9.296875 -0.660156 8.726562 -0.34375 8.09375 -0.125 C 7.46875 0.0820312 6.828125 0.1875 6.171875 0.1875 C 5.515625 0.1875 4.875 0.0820312 4.25 -0.125 C 3.625 -0.34375 3.0625 -0.660156 2.5625 -1.078125 C 2.070312 -1.503906 1.675781 -2.03125 1.375 -2.65625 C 1.082031 -3.289062 0.9375 -4.03125 0.9375 -4.875 C 0.9375 -5.707031 1.082031 -6.441406 1.375 -7.078125 C 1.675781 -7.710938 2.078125 -8.238281 2.578125 -8.65625 C 3.078125 -9.070312 3.644531 -9.382812 4.28125 -9.59375 C 4.914062 -9.8125 5.5625 -9.921875 6.21875 -9.921875 C 6.882812 -9.921875 7.523438 -9.8125 8.140625 -9.59375 C 8.753906 -9.382812 9.3125 -9.070312 9.8125 -8.65625 C 10.3125 -8.238281 10.707031 -7.710938 11 -7.078125 C 11.300781 -6.441406 11.453125 -5.707031 11.453125 -4.875 Z M 2.703125 -4.875 C 2.703125 -4.101562 2.875 -3.460938 3.21875 -2.953125 C 3.5625 -2.441406 4 -2.054688 4.53125 -1.796875 C 5.070312 -1.535156 5.628906 -1.40625 6.203125 -1.40625 C 6.796875 -1.40625 7.351562 -1.535156 7.875 -1.796875 C 8.40625 -2.054688 8.84375 -2.441406 9.1875 -2.953125 C 9.53125 -3.472656 9.703125 -4.113281 9.703125 -4.875 C 9.703125 -5.632812 9.53125 -6.273438 9.1875 -6.796875 C 8.851562 -7.316406 8.421875 -7.703125 7.890625 -7.953125 C 7.359375 -8.210938 6.800781 -8.34375 6.21875 -8.34375 C 5.632812 -8.34375 5.070312 -8.210938 4.53125 -7.953125 C 4 -7.703125 3.5625 -7.320312 3.21875 -6.8125 C 2.875 -6.300781 2.703125 -5.65625 2.703125 -4.875 Z M 2.703125 -4.875 "/></g></g></g><g fill="#fafafa" fill-opacity="0.4"><g transform="translate(29.416807, 21.202466)"><g><path d="M 1.25 -12.265625 C 1.25 -12.597656 1.363281 -12.847656 1.59375 -13.015625 C 1.832031 -13.179688 2.085938 -13.265625 2.359375 -13.265625 C 2.640625 -13.265625 2.890625 -13.179688 3.109375 -13.015625 C 3.328125 -12.859375 3.4375 -12.609375 3.4375 -12.265625 C 3.4375 -11.921875 3.320312 -11.660156 3.09375 -11.484375 C 2.875 -11.316406 2.625 -11.234375 2.34375 -11.234375 C 2.082031 -11.234375 1.832031 -11.316406 1.59375 -11.484375 C 1.363281 -11.660156 1.25 -11.921875 1.25 -12.265625 Z M 1.453125 -9.859375 L 1.453125 0 L 3.234375 0 L 3.234375 -9.859375 Z M 1.453125 -9.859375 "/></g></g></g><g fill="#fafafa" fill-opacity="0.4"><g transform="translate(34.264313, 21.202466)"><g><path d="M 3.125 -8.546875 C 3.476562 -9.078125 3.910156 -9.4375 4.421875 -9.625 C 4.929688 -9.8125 5.492188 -9.90625 6.109375 -9.90625 C 7.109375 -9.90625 7.914062 -9.710938 8.53125 -9.328125 C 9.15625 -8.941406 9.613281 -8.398438 9.90625 -7.703125 C 10.195312 -7.003906 10.34375 -6.1875 10.34375 -5.25 L 10.34375 0 L 8.59375 0 L 8.59375 -5.234375 C 8.59375 -5.847656 8.523438 -6.390625 8.390625 -6.859375 C 8.253906 -7.328125 7.992188 -7.6875 7.609375 -7.9375 C 7.234375 -8.195312 6.691406 -8.328125 5.984375 -8.328125 C 5.367188 -8.328125 4.847656 -8.191406 4.421875 -7.921875 C 3.992188 -7.648438 3.671875 -7.285156 3.453125 -6.828125 C 3.234375 -6.378906 3.125 -5.867188 3.125 -5.296875 L 3.125 0 L 1.359375 0 L 1.359375 -9.75 L 3.125 -9.75 Z M 3.125 -8.546875 "/></g></g></g><g fill="#fafafa" fill-opacity="0.4"><g transform="translate(45.950101, 21.202466)"><g><path d="M 9.46875 1.59375 L 0.25 1.59375 L 0.25 0 L 9.46875 0 Z M 9.46875 1.59375 "/></g></g></g><g fill="#fafafa" fill-opacity="0.4"><g transform="translate(56.185726, 21.202466)"><g><path d="M 4.703125 -6.875 L 7.40625 -9.75 L 9.53125 -9.75 L 5.609375 -5.546875 L 9.796875 -0.15625 L 9.796875 0 L 7.75 0 L 4.46875 -4.328125 L 3.203125 -2.96875 L 3.203125 0 L 1.4375 0 L 1.4375 -12.625 L 3.203125 -12.625 L 3.203125 -5.078125 Z M 4.703125 -6.875 "/></g></g></g><g fill="#fafafa" fill-opacity="0.4"><g transform="translate(66.223121, 21.202466)"><g><path d="M 1.25 -12.265625 C 1.25 -12.597656 1.363281 -12.847656 1.59375 -13.015625 C 1.832031 -13.179688 2.085938 -13.265625 2.359375 -13.265625 C 2.640625 -13.265625 2.890625 -13.179688 3.109375 -13.015625 C 3.328125 -12.859375 3.4375 -12.609375 3.4375 -12.265625 C 3.4375 -11.921875 3.320312 -11.660156 3.09375 -11.484375 C 2.875 -11.316406 2.625 -11.234375 2.34375 -11.234375 C 2.082031 -11.234375 1.832031 -11.316406 1.59375 -11.484375 C 1.363281 -11.660156 1.25 -11.921875 1.25 -12.265625 Z M 1.453125 -9.859375 L 1.453125 0 L 3.234375 0 L 3.234375 -9.859375 Z M 1.453125 -9.859375 "/></g></g></g><g fill="#fafafa" fill-opacity="0.4"><g transform="translate(71.070627, 21.202466)"><g><path d="M 3.125 -8.546875 C 3.476562 -9.078125 3.910156 -9.4375 4.421875 -9.625 C 4.929688 -9.8125 5.492188 -9.90625 6.109375 -9.90625 C 7.109375 -9.90625 7.914062 -9.710938 8.53125 -9.328125 C 9.15625 -8.941406 9.613281 -8.398438 9.90625 -7.703125 C 10.195312 -7.003906 10.34375 -6.1875 10.34375 -5.25 L 10.34375 0 L 8.59375 0 L 8.59375 -5.234375 C 8.59375 -5.847656 8.523438 -6.390625 8.390625 -6.859375 C 8.253906 -7.328125 7.992188 -7.6875 7.609375 -7.9375 C 7.234375 -8.195312 6.691406 -8.328125 5.984375 -8.328125 C 5.367188 -8.328125 4.847656 -8.191406 4.421875 -7.921875 C 3.992188 -7.648438 3.671875 -7.285156 3.453125 -6.828125 C 3.234375 -6.378906 3.125 -5.867188 3.125 -5.296875 L 3.125 0 L 1.359375 0 L 1.359375 -9.75 L 3.125 -9.75 Z M 3.125 -8.546875 "/></g></g></g><g fill="#fafafa" fill-opacity="0.4"><g transform="translate(82.747887, 21.202466)"><g><path d="M 10.9375 -12.625 L 10.9375 0 L 9.171875 0 L 9.171875 -1.3125 C 8.828125 -0.78125 8.347656 -0.40625 7.734375 -0.1875 C 7.128906 0.03125 6.523438 0.144531 5.921875 0.15625 C 4.785156 0.15625 3.828125 -0.0625 3.046875 -0.5 C 2.273438 -0.945312 1.691406 -1.554688 1.296875 -2.328125 C 0.910156 -3.097656 0.71875 -3.960938 0.71875 -4.921875 C 0.71875 -5.859375 0.914062 -6.703125 1.3125 -7.453125 C 1.71875 -8.203125 2.304688 -8.800781 3.078125 -9.25 C 3.859375 -9.695312 4.796875 -9.921875 5.890625 -9.921875 C 6.492188 -9.921875 7.085938 -9.828125 7.671875 -9.640625 C 8.253906 -9.453125 8.753906 -9.070312 9.171875 -8.5 L 9.171875 -12.625 Z M 9.171875 -4.890625 C 9.171875 -5.671875 9.007812 -6.316406 8.6875 -6.828125 C 8.375 -7.335938 7.96875 -7.71875 7.46875 -7.96875 C 6.96875 -8.226562 6.441406 -8.359375 5.890625 -8.359375 C 5.171875 -8.359375 4.554688 -8.191406 4.046875 -7.859375 C 3.546875 -7.523438 3.160156 -7.09375 2.890625 -6.5625 C 2.617188 -6.03125 2.484375 -5.472656 2.484375 -4.890625 C 2.484375 -4.222656 2.613281 -3.625 2.875 -3.09375 C 3.144531 -2.570312 3.535156 -2.160156 4.046875 -1.859375 C 4.554688 -1.554688 5.164062 -1.40625 5.875 -1.40625 C 6.425781 -1.40625 6.953125 -1.53125 7.453125 -1.78125 C 7.960938 -2.03125 8.375 -2.414062 8.6875 -2.9375 C 9.007812 -3.457031 9.171875 -4.109375 9.171875 -4.890625 Z M 9.171875 -4.890625 "/></g></g></g><g fill="#ffde59" fill-opacity="1"><g transform="translate(4.598769, 20.405569)"><g><path d="M 10.90625 -3.71875 C 10.75 -2.851562 10.414062 -2.132812 9.90625 -1.5625 C 9.40625 -0.988281 8.804688 -0.5625 8.109375 -0.28125 C 7.410156 0 6.691406 0.140625 5.953125 0.140625 C 5.328125 0.140625 4.710938 0.0351562 4.109375 -0.171875 C 3.503906 -0.378906 2.960938 -0.691406 2.484375 -1.109375 C 2.003906 -1.535156 1.625 -2.0625 1.34375 -2.6875 C 1.0625 -3.3125 0.921875 -4.046875 0.921875 -4.890625 C 0.921875 -5.734375 1.0625 -6.46875 1.34375 -7.09375 C 1.625 -7.726562 2.007812 -8.25 2.5 -8.65625 C 2.988281 -9.070312 3.53125 -9.382812 4.125 -9.59375 C 4.726562 -9.8125 5.347656 -9.921875 5.984375 -9.921875 C 6.734375 -9.921875 7.445312 -9.773438 8.125 -9.484375 C 8.8125 -9.203125 9.40625 -8.773438 9.90625 -8.203125 C 10.414062 -7.628906 10.75 -6.910156 10.90625 -6.046875 L 9.09375 -6.046875 C 8.875 -6.828125 8.472656 -7.40625 7.890625 -7.78125 C 7.304688 -8.15625 6.675781 -8.34375 6 -8.34375 C 5.457031 -8.34375 4.929688 -8.21875 4.421875 -7.96875 C 3.910156 -7.71875 3.492188 -7.335938 3.171875 -6.828125 C 2.847656 -6.316406 2.6875 -5.671875 2.6875 -4.890625 C 2.6875 -4.109375 2.847656 -3.457031 3.171875 -2.9375 C 3.492188 -2.414062 3.910156 -2.03125 4.421875 -1.78125 C 4.929688 -1.53125 5.460938 -1.40625 6.015625 -1.40625 C 6.691406 -1.40625 7.316406 -1.597656 7.890625 -1.984375 C 8.472656 -2.367188 8.875 -2.945312 9.09375 -3.71875 Z M 10.90625 -3.71875 "/></g></g></g><g fill="#ffde59" fill-opacity="1"><g transform="translate(16.113703, 20.405569)"><g><path d="M 11.453125 -4.875 C 11.453125 -4.03125 11.300781 -3.289062 11 -2.65625 C 10.707031 -2.03125 10.304688 -1.503906 9.796875 -1.078125 C 9.296875 -0.660156 8.726562 -0.34375 8.09375 -0.125 C 7.46875 0.0820312 6.828125 0.1875 6.171875 0.1875 C 5.515625 0.1875 4.875 0.0820312 4.25 -0.125 C 3.625 -0.34375 3.0625 -0.660156 2.5625 -1.078125 C 2.070312 -1.503906 1.675781 -2.03125 1.375 -2.65625 C 1.082031 -3.289062 0.9375 -4.03125 0.9375 -4.875 C 0.9375 -5.707031 1.082031 -6.441406 1.375 -7.078125 C 1.675781 -7.710938 2.078125 -8.238281 2.578125 -8.65625 C 3.078125 -9.070312 3.644531 -9.382812 4.28125 -9.59375 C 4.914062 -9.8125 5.5625 -9.921875 6.21875 -9.921875 C 6.882812 -9.921875 7.523438 -9.8125 8.140625 -9.59375 C 8.753906 -9.382812 9.3125 -9.070312 9.8125 -8.65625 C 10.3125 -8.238281 10.707031 -7.710938 11 -7.078125 C 11.300781 -6.441406 11.453125 -5.707031 11.453125 -4.875 Z M 2.703125 -4.875 C 2.703125 -4.101562 2.875 -3.460938 3.21875 -2.953125 C 3.5625 -2.441406 4 -2.054688 4.53125 -1.796875 C 5.070312 -1.535156 5.628906 -1.40625 6.203125 -1.40625 C 6.796875 -1.40625 7.351562 -1.535156 7.875 -1.796875 C 8.40625 -2.054688 8.84375 -2.441406 9.1875 -2.953125 C 9.53125 -3.472656 9.703125 -4.113281 9.703125 -4.875 C 9.703125 -5.632812 9.53125 -6.273438 9.1875 -6.796875 C 8.851562 -7.316406 8.421875 -7.703125 7.890625 -7.953125 C 7.359375 -8.210938 6.800781 -8.34375 6.21875 -8.34375 C 5.632812 -8.34375 5.070312 -8.210938 4.53125 -7.953125 C 4 -7.703125 3.5625 -7.320312 3.21875 -6.8125 C 2.875 -6.300781 2.703125 -5.65625 2.703125 -4.875 Z M 2.703125 -4.875 "/></g></g></g><g fill="#ffde59" fill-opacity="1"><g transform="translate(28.61991, 20.405569)"><g><path d="M 1.25 -12.265625 C 1.25 -12.597656 1.363281 -12.847656 1.59375 -13.015625 C 1.832031 -13.179688 2.085938 -13.265625 2.359375 -13.265625 C 2.640625 -13.265625 2.890625 -13.179688 3.109375 -13.015625 C 3.328125 -12.859375 3.4375 -12.609375 3.4375 -12.265625 C 3.4375 -11.921875 3.320312 -11.660156 3.09375 -11.484375 C 2.875 -11.316406 2.625 -11.234375 2.34375 -11.234375 C 2.082031 -11.234375 1.832031 -11.316406 1.59375 -11.484375 C 1.363281 -11.660156 1.25 -11.921875 1.25 -12.265625 Z M 1.453125 -9.859375 L 1.453125 0 L 3.234375 0 L 3.234375 -9.859375 Z M 1.453125 -9.859375 "/></g></g></g><g fill="#ffde59" fill-opacity="1"><g transform="translate(33.467417, 20.405569)"><g><path d="M 3.125 -8.546875 C 3.476562 -9.078125 3.910156 -9.4375 4.421875 -9.625 C 4.929688 -9.8125 5.492188 -9.90625 6.109375 -9.90625 C 7.109375 -9.90625 7.914062 -9.710938 8.53125 -9.328125 C 9.15625 -8.941406 9.613281 -8.398438 9.90625 -7.703125 C 10.195312 -7.003906 10.34375 -6.1875 10.34375 -5.25 L 10.34375 0 L 8.59375 0 L 8.59375 -5.234375 C 8.59375 -5.847656 8.523438 -6.390625 8.390625 -6.859375 C 8.253906 -7.328125 7.992188 -7.6875 7.609375 -7.9375 C 7.234375 -8.195312 6.691406 -8.328125 5.984375 -8.328125 C 5.367188 -8.328125 4.847656 -8.191406 4.421875 -7.921875 C 3.992188 -7.648438 3.671875 -7.285156 3.453125 -6.828125 C 3.234375 -6.378906 3.125 -5.867188 3.125 -5.296875 L 3.125 0 L 1.359375 0 L 1.359375 -9.75 L 3.125 -9.75 Z M 3.125 -8.546875 "/></g></g></g><g fill="#fafafa" fill-opacity="1"><g transform="translate(45.153204, 20.405569)"><g><path d="M 9.46875 1.59375 L 0.25 1.59375 L 0.25 0 L 9.46875 0 Z M 9.46875 1.59375 "/></g></g></g><g fill="#fafafa" fill-opacity="1"><g transform="translate(55.388829, 20.405569)"><g><path d="M 4.703125 -6.875 L 7.40625 -9.75 L 9.53125 -9.75 L 5.609375 -5.546875 L 9.796875 -0.15625 L 9.796875 0 L 7.75 0 L 4.46875 -4.328125 L 3.203125 -2.96875 L 3.203125 0 L 1.4375 0 L 1.4375 -12.625 L 3.203125 -12.625 L 3.203125 -5.078125 Z M 4.703125 -6.875 "/></g></g></g><g fill="#fafafa" fill-opacity="1"><g transform="translate(65.426224, 20.405569)"><g><path d="M 1.25 -12.265625 C 1.25 -12.597656 1.363281 -12.847656 1.59375 -13.015625 C 1.832031 -13.179688 2.085938 -13.265625 2.359375 -13.265625 C 2.640625 -13.265625 2.890625 -13.179688 3.109375 -13.015625 C 3.328125 -12.859375 3.4375 -12.609375 3.4375 -12.265625 C 3.4375 -11.921875 3.320312 -11.660156 3.09375 -11.484375 C 2.875 -11.316406 2.625 -11.234375 2.34375 -11.234375 C 2.082031 -11.234375 1.832031 -11.316406 1.59375 -11.484375 C 1.363281 -11.660156 1.25 -11.921875 1.25 -12.265625 Z M 1.453125 -9.859375 L 1.453125 0 L 3.234375 0 L 3.234375 -9.859375 Z M 1.453125 -9.859375 "/></g></g></g><g fill="#fafafa" fill-opacity="1"><g transform="translate(70.273731, 20.405569)"><g><path d="M 3.125 -8.546875 C 3.476562 -9.078125 3.910156 -9.4375 4.421875 -9.625 C 4.929688 -9.8125 5.492188 -9.90625 6.109375 -9.90625 C 7.109375 -9.90625 7.914062 -9.710938 8.53125 -9.328125 C 9.15625 -8.941406 9.613281 -8.398438 9.90625 -7.703125 C 10.195312 -7.003906 10.34375 -6.1875 10.34375 -5.25 L 10.34375 0 L 8.59375 0 L 8.59375 -5.234375 C 8.59375 -5.847656 8.523438 -6.390625 8.390625 -6.859375 C 8.253906 -7.328125 7.992188 -7.6875 7.609375 -7.9375 C 7.234375 -8.195312 6.691406 -8.328125 5.984375 -8.328125 C 5.367188 -8.328125 4.847656 -8.191406 4.421875 -7.921875 C 3.992188 -7.648438 3.671875 -7.285156 3.453125 -6.828125 C 3.234375 -6.378906 3.125 -5.867188 3.125 -5.296875 L 3.125 0 L 1.359375 0 L 1.359375 -9.75 L 3.125 -9.75 Z M 3.125 -8.546875 "/></g></g></g><g fill="#fafafa" fill-opacity="1"><g transform="translate(81.95099, 20.405569)"><g><path d="M 10.9375 -12.625 L 10.9375 0 L 9.171875 0 L 9.171875 -1.3125 C 8.828125 -0.78125 8.347656 -0.40625 7.734375 -0.1875 C 7.128906 0.03125 6.523438 0.144531 5.921875 0.15625 C 4.785156 0.15625 3.828125 -0.0625 3.046875 -0.5 C 2.273438 -0.945312 1.691406 -1.554688 1.296875 -2.328125 C 0.910156 -3.097656 0.71875 -3.960938 0.71875 -4.921875 C 0.71875 -5.859375 0.914062 -6.703125 1.3125 -7.453125 C 1.71875 -8.203125 2.304688 -8.800781 3.078125 -9.25 C 3.859375 -9.695312 4.796875 -9.921875 5.890625 -9.921875 C 6.492188 -9.921875 7.085938 -9.828125 7.671875 -9.640625 C 8.253906 -9.453125 8.753906 -9.070312 9.171875 -8.5 L 9.171875 -12.625 Z M 9.171875 -4.890625 C 9.171875 -5.671875 9.007812 -6.316406 8.6875 -6.828125 C 8.375 -7.335938 7.96875 -7.71875 7.46875 -7.96875 C 6.96875 -8.226562 6.441406 -8.359375 5.890625 -8.359375 C 5.171875 -8.359375 4.554688 -8.191406 4.046875 -7.859375 C 3.546875 -7.523438 3.160156 -7.09375 2.890625 -6.5625 C 2.617188 -6.03125 2.484375 -5.472656 2.484375 -4.890625 C 2.484375 -4.222656 2.613281 -3.625 2.875 -3.09375 C 3.144531 -2.570312 3.535156 -2.160156 4.046875 -1.859375 C 4.554688 -1.554688 5.164062 -1.40625 5.875 -1.40625 C 6.425781 -1.40625 6.953125 -1.53125 7.453125 -1.78125 C 7.960938 -2.03125 8.375 -2.414062 8.6875 -2.9375 C 9.007812 -3.457031 9.171875 -4.109375 9.171875 -4.890625 Z M 9.171875 -4.890625 "/></g></g></g></svg>