<svg xmlns="http://www.w3.org/2000/svg" xmlns:xlink="http://www.w3.org/1999/xlink" width="132" zoomAndPan="magnify" viewBox="0 0 98.88 30.000001" height="40" preserveAspectRatio="xMidYMid meet" version="1.0"><defs><g/></defs><g fill="#ffde59" fill-opacity="1"><g transform="translate(5.586681, 20.523311)"><g><path d="M 3.585938 -7.175781 C 3.585938 -5.542969 3.921875 -4.261719 4.601562 -3.335938 C 5.230469 -2.472656 6.191406 -2.042969 7.492188 -2.042969 C 8.449219 -2.042969 9.207031 -2.289062 9.773438 -2.777344 C 10.351562 -3.277344 10.75 -4.050781 10.976562 -5.101562 L 11.125 -5.792969 L 14.351562 -4.976562 L 14.175781 -4.3125 C 13.722656 -2.59375 12.945312 -1.292969 11.847656 -0.414062 C 10.742188 0.472656 9.335938 0.917969 7.628906 0.917969 C 5.300781 0.917969 3.496094 0.183594 2.214844 -1.28125 C 0.957031 -2.722656 0.328125 -4.683594 0.328125 -7.175781 C 0.328125 -9.605469 0.976562 -11.523438 2.277344 -12.933594 C 3.589844 -14.355469 5.386719 -15.066406 7.667969 -15.066406 C 9.28125 -15.066406 10.609375 -14.679688 11.664062 -13.90625 C 12.71875 -13.132812 13.46875 -11.984375 13.914062 -10.46875 L 14.113281 -9.78125 L 10.96875 -9.035156 L 10.777344 -9.632812 C 10.503906 -10.480469 10.105469 -11.109375 9.582031 -11.515625 C 9.074219 -11.910156 8.421875 -12.109375 7.628906 -12.109375 C 6.304688 -12.109375 5.308594 -11.695312 4.640625 -10.867188 C 3.9375 -9.996094 3.585938 -8.765625 3.585938 -7.175781 Z M 2.226562 -7.175781 C 2.226562 -9.085938 2.679688 -10.601562 3.582031 -11.722656 C 4.523438 -12.886719 5.871094 -13.464844 7.628906 -13.464844 C 8.734375 -13.464844 9.660156 -13.171875 10.417969 -12.585938 C 11.160156 -12.011719 11.710938 -11.164062 12.070312 -10.050781 L 11.421875 -9.84375 L 11.265625 -10.503906 L 13.105469 -10.9375 L 13.261719 -10.277344 L 12.609375 -10.085938 C 12.25 -11.308594 11.667969 -12.21875 10.859375 -12.8125 C 10.046875 -13.410156 8.980469 -13.707031 7.667969 -13.707031 C 5.785156 -13.707031 4.320312 -13.140625 3.277344 -12.011719 C 2.21875 -10.863281 1.6875 -9.25 1.6875 -7.175781 C 1.6875 -5.027344 2.203125 -3.359375 3.238281 -2.175781 C 4.25 -1.019531 5.714844 -0.441406 7.628906 -0.441406 C 9.019531 -0.441406 10.140625 -0.785156 11 -1.472656 C 11.863281 -2.167969 12.484375 -3.230469 12.863281 -4.660156 L 13.519531 -4.488281 L 13.351562 -3.828125 L 11.472656 -4.300781 L 11.640625 -4.960938 L 12.304688 -4.816406 C 12.015625 -3.472656 11.46875 -2.449219 10.664062 -1.75 C 9.84375 -1.039062 8.785156 -0.683594 7.492188 -0.683594 C 5.730469 -0.683594 4.402344 -1.300781 3.503906 -2.535156 C 2.652344 -3.703125 2.226562 -5.246094 2.226562 -7.175781 Z M 2.226562 -7.175781 "/></g></g></g><g fill="#ffde59" fill-opacity="1"><g transform="translate(19.197934, 20.523311)"><g><path d="M 7.726562 0.917969 C 5.5 0.917969 3.699219 0.164062 2.324219 -1.339844 C 0.96875 -2.828125 0.289062 -4.679688 0.289062 -6.898438 C 0.289062 -9.316406 0.933594 -11.28125 2.21875 -12.792969 C 3.535156 -14.335938 5.371094 -15.105469 7.726562 -15.105469 C 8.695312 -15.105469 9.617188 -14.9375 10.492188 -14.597656 C 11.367188 -14.257812 12.160156 -13.765625 12.867188 -13.121094 C 13.59375 -12.464844 14.160156 -11.605469 14.578125 -10.542969 C 14.984375 -9.503906 15.1875 -8.339844 15.1875 -7.054688 C 15.1875 -5.859375 15.019531 -4.785156 14.683594 -3.835938 C 14.34375 -2.875 13.90625 -2.097656 13.371094 -1.503906 C 12.847656 -0.917969 12.242188 -0.4375 11.554688 -0.0585938 C 10.878906 0.316406 10.21875 0.574219 9.582031 0.714844 C 8.960938 0.847656 8.34375 0.917969 7.726562 0.917969 Z M 7.726562 -0.441406 C 8.246094 -0.441406 8.765625 -0.5 9.292969 -0.613281 C 9.800781 -0.726562 10.335938 -0.9375 10.898438 -1.246094 C 11.449219 -1.550781 11.9375 -1.941406 12.359375 -2.410156 C 12.773438 -2.871094 13.121094 -3.496094 13.402344 -4.289062 C 13.683594 -5.089844 13.828125 -6.011719 13.828125 -7.054688 C 13.828125 -8.167969 13.65625 -9.167969 13.308594 -10.050781 C 12.972656 -10.914062 12.523438 -11.601562 11.953125 -12.117188 C 11.371094 -12.644531 10.71875 -13.050781 10 -13.328125 C 9.285156 -13.609375 8.527344 -13.746094 7.726562 -13.746094 C 5.789062 -13.746094 4.296875 -13.136719 3.253906 -11.910156 C 2.183594 -10.65625 1.648438 -8.984375 1.648438 -6.898438 C 1.648438 -5.03125 2.207031 -3.484375 3.328125 -2.257812 C 4.433594 -1.046875 5.898438 -0.441406 7.726562 -0.441406 Z M 7.746094 -12.109375 C 6.921875 -12.109375 6.230469 -11.960938 5.667969 -11.671875 C 5.128906 -11.390625 4.71875 -11.007812 4.445312 -10.523438 C 4.132812 -9.980469 3.910156 -9.417969 3.773438 -8.835938 C 3.632812 -8.242188 3.566406 -7.589844 3.566406 -6.878906 C 3.566406 -5.433594 3.945312 -4.261719 4.710938 -3.351562 C 5.445312 -2.480469 6.449219 -2.042969 7.726562 -2.042969 C 9.027344 -2.042969 10.035156 -2.488281 10.757812 -3.382812 C 11.511719 -4.316406 11.890625 -5.542969 11.890625 -7.054688 C 11.890625 -8.054688 11.757812 -8.90625 11.488281 -9.613281 C 11.234375 -10.28125 10.90625 -10.78125 10.5 -11.113281 C 10.0625 -11.472656 9.621094 -11.726562 9.171875 -11.875 C 8.714844 -12.03125 8.238281 -12.109375 7.746094 -12.109375 Z M 7.746094 -13.464844 C 8.386719 -13.464844 9.007812 -13.367188 9.605469 -13.164062 C 10.210938 -12.960938 10.792969 -12.628906 11.359375 -12.167969 C 11.953125 -11.683594 12.421875 -10.992188 12.761719 -10.09375 C 13.085938 -9.230469 13.25 -8.21875 13.25 -7.054688 C 13.25 -5.222656 12.769531 -3.714844 11.8125 -2.527344 C 10.820312 -1.296875 9.460938 -0.683594 7.726562 -0.683594 C 6.027344 -0.683594 4.675781 -1.28125 3.667969 -2.476562 C 2.695312 -3.636719 2.207031 -5.105469 2.207031 -6.878906 C 2.207031 -7.695312 2.289062 -8.449219 2.453125 -9.148438 C 2.617188 -9.859375 2.890625 -10.539062 3.265625 -11.199219 C 3.671875 -11.914062 4.265625 -12.472656 5.042969 -12.875 C 5.800781 -13.269531 6.699219 -13.464844 7.746094 -13.464844 Z M 7.746094 -13.464844 "/></g></g></g><g fill="#ffde59" fill-opacity="1"><g transform="translate(33.915493, 20.523311)"><g><path d="M 1.179688 -14.832031 L 4.414062 -14.832031 L 4.414062 0.679688 L 1.179688 0.679688 Z M 2.539062 -13.472656 L 2.539062 -0.679688 L 3.054688 -0.679688 L 3.054688 -13.472656 Z M 2.539062 -13.472656 "/></g></g></g><g fill="#ffde59" fill-opacity="1"><g transform="translate(38.755259, 20.523311)"><g><path d="M 0.84375 0 L 0.84375 -14.832031 L 3.78125 -14.832031 L 11.414062 -3.441406 L 10.851562 -3.0625 L 10.171875 -3.0625 L 10.171875 -14.832031 L 13.347656 -14.832031 L 13.347656 0.679688 L 10.367188 0.679688 L 2.734375 -10.75 L 3.300781 -11.128906 L 3.980469 -11.128906 L 3.980469 0.679688 L 0.84375 0.679688 Z M 2.203125 0 L 1.523438 0 L 1.523438 -0.679688 L 3.300781 -0.679688 L 3.300781 0 L 2.621094 0 L 2.621094 -13.367188 L 11.296875 -0.378906 L 10.730469 0 L 10.730469 -0.679688 L 12.667969 -0.679688 L 12.667969 0 L 11.988281 0 L 11.988281 -14.152344 L 12.667969 -14.152344 L 12.667969 -13.472656 L 10.851562 -13.472656 L 10.851562 -14.152344 L 11.53125 -14.152344 L 11.53125 -0.828125 L 2.855469 -13.773438 L 3.417969 -14.152344 L 3.417969 -13.472656 L 1.523438 -13.472656 L 1.523438 -14.152344 L 2.203125 -14.152344 Z M 2.203125 0 "/></g></g></g><path fill="#fafafa" d="M 51.378906 21.976562 L 90.855469 21.976562 L 90.855469 23.429688 L 51.378906 23.429688 Z M 51.378906 21.976562 " fill-opacity="1" fill-rule="nonzero"/><g fill="#fafafa" fill-opacity="1"><g transform="translate(51.377476, 20.525808)"><g><path d="M 1.089844 0 L 1.089844 -14.503906 L 3.707031 -14.503906 L 3.707031 -7.105469 L 3.335938 -7.105469 L 3.074219 -7.367188 L 10.191406 -14.503906 L 13.765625 -14.503906 L 7.1875 -8.144531 L 6.929688 -8.410156 L 7.226562 -8.628906 L 13.859375 0.371094 L 10.488281 0.371094 L 5.324219 -6.933594 L 5.625 -7.148438 L 5.886719 -6.882812 L 3.597656 -4.632812 L 3.335938 -4.894531 L 3.707031 -4.894531 L 3.707031 0.371094 L 1.089844 0.371094 Z M 1.832031 0 L 1.460938 0 L 1.460938 -0.371094 L 3.335938 -0.371094 L 3.335938 0 L 2.964844 0 L 2.964844 -5.050781 L 5.675781 -7.714844 L 10.984375 -0.214844 L 10.679688 0 L 10.679688 -0.371094 L 13.128906 -0.371094 L 13.128906 0 L 12.832031 0.21875 L 6.4375 -8.449219 L 12.59375 -14.402344 L 12.851562 -14.136719 L 12.851562 -13.765625 L 10.34375 -13.765625 L 10.34375 -14.136719 L 10.605469 -13.875 L 2.964844 -6.210938 L 2.964844 -14.136719 L 3.335938 -14.136719 L 3.335938 -13.765625 L 1.460938 -13.765625 L 1.460938 -14.136719 L 1.832031 -14.136719 Z M 1.832031 0 "/></g></g></g><g fill="#fafafa" fill-opacity="1"><g transform="translate(64.519605, 20.525808)"><g><path d="M 0.933594 -12.140625 L 0.933594 -14.503906 L 3.429688 -14.503906 L 3.429688 -11.769531 L 0.933594 -11.769531 Z M 1.671875 -12.140625 L 1.304688 -12.140625 L 1.304688 -12.511719 L 3.058594 -12.511719 L 3.058594 -12.140625 L 2.691406 -12.140625 L 2.691406 -14.136719 L 3.058594 -14.136719 L 3.058594 -13.765625 L 1.304688 -13.765625 L 1.304688 -14.136719 L 1.671875 -14.136719 Z M 0.933594 0 L 0.933594 -10.597656 L 3.429688 -10.597656 L 3.429688 0.371094 L 0.933594 0.371094 Z M 1.671875 0 L 1.304688 0 L 1.304688 -0.371094 L 3.058594 -0.371094 L 3.058594 0 L 2.691406 0 L 2.691406 -10.226562 L 3.058594 -10.226562 L 3.058594 -9.855469 L 1.304688 -9.855469 L 1.304688 -10.226562 L 1.671875 -10.226562 Z M 1.671875 0 "/></g></g></g><g fill="#fafafa" fill-opacity="1"><g transform="translate(68.900315, 20.525808)"><g><path d="M 0.933594 0 L 0.933594 -10.597656 L 3.253906 -10.597656 L 3.253906 -8.804688 L 2.882812 -8.804688 L 2.570312 -9.003906 C 3.339844 -10.222656 4.53125 -10.832031 6.140625 -10.832031 C 7.40625 -10.832031 8.363281 -10.484375 9.015625 -9.789062 C 9.660156 -9.097656 9.984375 -8.085938 9.984375 -6.75 L 9.984375 0.371094 L 7.527344 0.371094 L 7.527344 -6.238281 C 7.527344 -7.0625 7.375 -7.664062 7.066406 -8.050781 C 6.785156 -8.414062 6.34375 -8.59375 5.746094 -8.59375 C 4.96875 -8.59375 4.394531 -8.359375 4.019531 -7.890625 C 3.625 -7.402344 3.429688 -6.640625 3.429688 -5.605469 L 3.429688 0.371094 L 0.933594 0.371094 Z M 1.671875 0 L 1.304688 0 L 1.304688 -0.371094 L 3.058594 -0.371094 L 3.058594 0 L 2.691406 0 L 2.691406 -5.605469 C 2.691406 -6.8125 2.941406 -7.726562 3.441406 -8.355469 C 3.964844 -9.007812 4.730469 -9.332031 5.746094 -9.332031 C 6.582031 -9.332031 7.214844 -9.058594 7.648438 -8.511719 C 8.0625 -7.988281 8.265625 -7.230469 8.265625 -6.238281 L 8.265625 0 L 7.898438 0 L 7.898438 -0.371094 L 9.613281 -0.371094 L 9.613281 0 L 9.246094 0 L 9.246094 -6.75 C 9.246094 -7.890625 8.988281 -8.734375 8.476562 -9.28125 C 7.96875 -9.824219 7.191406 -10.09375 6.140625 -10.09375 C 4.800781 -10.09375 3.820312 -9.597656 3.195312 -8.605469 L 2.511719 -7.523438 L 2.511719 -10.226562 L 2.882812 -10.226562 L 2.882812 -9.855469 L 1.304688 -9.855469 L 1.304688 -10.226562 L 1.671875 -10.226562 Z M 1.671875 0 "/></g></g></g><g fill="#fafafa" fill-opacity="1"><g transform="translate(79.871824, 20.525808)"><g><path d="M 5.09375 0.605469 C 3.617188 0.605469 2.445312 0.0585938 1.574219 -1.042969 C 0.726562 -2.117188 0.300781 -3.472656 0.300781 -5.113281 C 0.300781 -6.789062 0.695312 -8.152344 1.480469 -9.203125 C 2.292969 -10.289062 3.46875 -10.832031 5.015625 -10.832031 C 6.335938 -10.832031 7.375 -10.324219 8.132812 -9.300781 L 7.835938 -9.082031 L 7.46875 -9.082031 L 7.46875 -14.503906 L 9.925781 -14.503906 L 9.925781 0.371094 L 7.585938 0.371094 L 7.585938 -1.261719 L 7.957031 -1.261719 L 8.261719 -1.054688 C 7.503906 0.0546875 6.449219 0.605469 5.09375 0.605469 Z M 5.09375 -0.132812 C 6.1875 -0.132812 7.039062 -0.578125 7.652344 -1.472656 L 8.324219 -2.460938 L 8.324219 0 L 7.957031 0 L 7.957031 -0.371094 L 9.554688 -0.371094 L 9.554688 0 L 9.183594 0 L 9.183594 -14.136719 L 9.554688 -14.136719 L 9.554688 -13.765625 L 7.835938 -13.765625 L 7.835938 -14.136719 L 8.207031 -14.136719 L 8.207031 -7.960938 L 7.539062 -8.859375 C 6.929688 -9.683594 6.089844 -10.09375 5.015625 -10.09375 C 3.714844 -10.09375 2.738281 -9.648438 2.074219 -8.761719 C 1.386719 -7.839844 1.042969 -6.625 1.042969 -5.113281 C 1.042969 -3.644531 1.414062 -2.441406 2.15625 -1.503906 C 2.878906 -0.589844 3.855469 -0.132812 5.09375 -0.132812 Z M 7.625 -4.957031 C 7.625 -5.40625 7.585938 -5.84375 7.503906 -6.269531 C 7.425781 -6.683594 7.292969 -7.089844 7.109375 -7.484375 C 6.941406 -7.839844 6.691406 -8.128906 6.359375 -8.347656 C 6.035156 -8.5625 5.636719 -8.671875 5.171875 -8.671875 C 4.394531 -8.671875 3.8125 -8.398438 3.433594 -7.847656 C 3.023438 -7.257812 2.816406 -6.34375 2.816406 -5.113281 C 2.816406 -3.816406 3.070312 -2.902344 3.574219 -2.367188 C 4.074219 -1.839844 4.628906 -1.574219 5.230469 -1.574219 C 5.8125 -1.574219 6.289062 -1.757812 6.65625 -2.128906 C 7.050781 -2.519531 7.308594 -2.949219 7.429688 -3.410156 C 7.558594 -3.90625 7.625 -4.421875 7.625 -4.957031 Z M 8.367188 -4.957031 C 8.367188 -4.359375 8.292969 -3.78125 8.144531 -3.222656 C 7.992188 -2.632812 7.667969 -2.09375 7.179688 -1.605469 C 6.667969 -1.089844 6.019531 -0.835938 5.230469 -0.835938 C 4.414062 -0.835938 3.683594 -1.175781 3.039062 -1.859375 C 2.398438 -2.535156 2.078125 -3.621094 2.078125 -5.113281 C 2.078125 -6.5 2.328125 -7.550781 2.824219 -8.269531 C 3.351562 -9.03125 4.136719 -9.410156 5.171875 -9.410156 C 5.785156 -9.410156 6.316406 -9.261719 6.769531 -8.964844 C 7.214844 -8.671875 7.550781 -8.28125 7.777344 -7.796875 C 7.988281 -7.347656 8.140625 -6.882812 8.230469 -6.40625 C 8.320312 -5.9375 8.367188 -5.453125 8.367188 -4.957031 Z M 8.367188 -4.957031 "/></g></g></g></svg>